#!OML:ASF I:\Random Stuff\random\construction\7_22_03\Session 2\subj1.ASF
:FULLY-SPECIFIED
:DEGREES
268
root -1.86814 17.7961 6.20716 4.70692 64.0782 -6.90278
lowerback 1.23223 2.18367 4.65231
upperback -1.31375 3.03434 0.560338
thorax -1.83207 1.4593 -2.10636
lowerneck -19.612 9.2423 10.2713
upperneck 42.1538 13.9922 -3.73482
head 21.4455 6.9004 -0.192284
rclavicle -1.43373e-014 -6.75868e-015
rhumerus -26.0499 8.5061 -70.8378
rradius 78.0876
rwrist 9.73944
rhand -30.5538 5.98694
rfingers 7.12502
rthumb -3.85222 -23.958
lclavicle -1.43373e-014 -6.75868e-015
lhumerus -9.53502 -29.2851 72.3112
lradius 70.9632
lwrist 4.55313
lhand -23.5272 70.5795
lfingers 7.12502
lthumb -177.066 79.461
rfemur -11.2413 11.5399 21.5206
rtibia 12.9846
rfoot -8.5529 -17.8254
rtoes -11.3879
lfemur -16.3426 -18.5088 -9.69244
ltibia 21.1419
lfoot -14.3854 14.4147
ltoes -30.8872
269
root -1.86777 17.799 6.21261 4.78589 64.0735 -6.83882
lowerback 1.22889 2.21547 4.60222
upperback -1.32525 3.07644 0.581207
thorax -1.84275 1.48084 -2.05808
lowerneck -19.6952 9.22235 10.2085
upperneck 42.1221 13.9492 -3.70363
head 21.4291 6.87507 -0.174224
rclavicle 1.10822e-014 -1.15295e-014
rhumerus -26.2214 8.14032 -70.7808
rradius 78.462
rwrist 10.0811
rhand -29.8151 6.00847
rfingers 7.12502
rthumb -3.13885 -23.9482
lclavicle 1.10822e-014 -1.15295e-014
lhumerus -9.47213 -28.9406 72.2233
lradius 71.354
lwrist 6.29125
lhand -23.0055 70.0499
lfingers 7.12502
lthumb -176.562 79.9981
rfemur -11.28 11.6813 21.4825
rtibia 13.0371
rfoot -8.65075 -17.9104
rtoes -10.5534
lfemur -16.3317 -18.6229 -9.68838
ltibia 21.09
lfoot -14.3208 14.6242
ltoes -32.1908
270
root -1.86716 17.8002 6.21803 4.87387 64.069 -6.74461
lowerback 1.22434 2.2325 4.51956
upperback -1.33169 3.09771 0.598357
thorax -1.85045 1.49251 -1.99492
lowerneck -19.7506 9.21031 10.217
upperneck 42.0821 13.9145 -3.72168
head 21.4168 6.85847 -0.191851
rclavicle -9.44227e-016 -2.38542e-015
rhumerus -26.3798 7.8427 -70.7176
rradius 78.8238
rwrist 10.3004
rhand -29.283 6.20398
rfingers 7.12502
rthumb -2.625 -23.7596
lclavicle -9.44227e-016 -2.38542e-015
lhumerus -9.42108 -28.5228 72.1367
lradius 71.7339
lwrist 8.32508
lhand -22.0377 69.5691
lfingers 7.12502
lthumb -175.628 80.496
rfemur -11.2976 11.8307 21.4361
rtibia 13.0731
rfoot -8.62518 -18.039
rtoes -10.5918
lfemur -16.3056 -18.7332 -9.71067
ltibia 21.0519
lfoot -14.7268 14.7479
ltoes -32.3981
271
root -1.86628 17.7988 6.22096 4.89913 64.1085 -6.72409
lowerback 1.22817 2.23763 4.50254
upperback -1.35521 3.10551 0.60559
thorax -1.87759 1.49582 -1.97901
lowerneck -19.8071 9.16184 10.1932
upperneck 42.0087 13.7745 -3.64694
head 21.3497 6.80979 -0.186553
rclavicle -1.03293e-013 -2.3059e-014
rhumerus -26.532 7.50566 -70.697
rradius 79.1393
rwrist 10.5735
rhand -28.9453 6.36637
rfingers 7.12502
rthumb -2.29887 -23.601
lclavicle -1.03293e-013 -2.3059e-014
lhumerus -9.42793 -28.156 72.0617
lradius 72.145
lwrist 10.7017
lhand -20.7593 69.0528
lfingers 7.12502
lthumb -174.393 81.0413
rfemur -11.3002 11.7891 21.4392
rtibia 13.0876
rfoot -8.53739 -18.0614
rtoes -11.2964
lfemur -16.3118 -18.7708 -9.70711
ltibia 21.0305
lfoot -15.0431 14.8525
ltoes -31.7017
272
root -1.86539 17.7983 6.22268 4.84865 64.1604 -6.79355
lowerback 1.26643 2.22986 4.51305
upperback -1.40764 3.10027 0.630693
thorax -1.95438 1.49095 -1.96216
lowerneck -19.8608 9.06606 10.0166
upperneck 41.9722 13.5491 -3.40911
head 21.254 6.72819 -0.0966968
rclavicle -5.44173e-014 -2.38542e-015
rhumerus -26.6907 7.2644 -70.7144
rradius 79.3918
rwrist 10.8763
rhand -28.9055 6.34416
rfingers 7.12502
rthumb -2.26041 -23.6236
lclavicle -5.44173e-014 -2.38542e-015
lhumerus -9.52169 -27.7916 72.009
lradius 72.4492
lwrist 12.4962
lhand -19.4637 68.9312
lfingers 7.12502
lthumb -173.142 81.1999
rfemur -11.2885 11.6396 21.4857
rtibia 13.0751
rfoot -8.54963 -17.9421
rtoes -11.3415
lfemur -16.3442 -18.7431 -9.66598
ltibia 21.0344
lfoot -15.3121 14.8457
ltoes -32.2206
273
root -1.86499 17.7999 6.22446 4.76522 64.1867 -6.89107
lowerback 1.32034 2.22542 4.51626
upperback -1.45657 3.10022 0.660163
thorax -2.03664 1.48873 -1.93748
lowerneck -19.939 8.9347 9.72654
upperneck 41.975 13.262 -3.05349
head 21.1575 6.62125 0.056639
rclavicle 2.43511e-015 3.97569e-015
rhumerus -26.8351 7.09457 -70.7503
rradius 79.5823
rwrist 11.0446
rhand -28.9171 6.17351
rfingers 7.12502
rthumb -2.27165 -23.7941
lclavicle 2.43511e-015 3.97569e-015
lhumerus -9.60492 -27.4092 71.9249
lradius 72.5929
lwrist 13.0798
lhand -18.5919 68.6688
lfingers 7.12502
lthumb -172.301 81.4914
rfemur -11.2624 11.5411 21.5396
rtibia 13.0318
rfoot -8.58809 -17.8071
rtoes -10.8567
lfemur -16.3731 -18.7059 -9.61619
ltibia 21.0701
lfoot -14.7835 13.9978
ltoes -27.2628
274
root -1.86557 17.8013 6.22594 4.73703 64.2068 -6.93422
lowerback 1.34488 2.22132 4.49893
upperback -1.48791 3.09729 0.671638
thorax -2.08445 1.48621 -1.91797
lowerneck -20.0917 8.80606 9.6715
upperneck 42.0451 13.0403 -3.00515
head 21.2155 6.53151 0.0433163
rclavicle 3.07619e-014 -7.7526e-015
rhumerus -26.9198 6.88418 -70.8002
rradius 79.718
rwrist 10.9492
rhand -28.8701 6.00123
rfingers 7.12502
rthumb -2.22627 -23.9669
lclavicle 3.07619e-014 -7.7526e-015
lhumerus -9.67471 -27.1944 71.8007
lradius 72.7228
lwrist 13.3385
lhand -18.2545 67.9857
lfingers 7.12502
lthumb -171.975 82.1867
rfemur -11.2522 11.4616 21.5656
rtibia 12.9836
rfoot -8.58261 -17.7165
rtoes -10.6445
lfemur -16.4112 -18.6444 -9.59326
ltibia 21.1136
lfoot -14.5921 13.7219
ltoes -25.3317
275
root -1.86627 17.8001 6.22693 4.78358 64.2275 -6.90563
lowerback 1.34628 2.21093 4.43083
upperback -1.50829 3.08271 0.675217
thorax -2.11078 1.4792 -1.87671
lowerneck -20.2949 8.6118 9.44548
upperneck 42.0642 12.6975 -2.82675
head 21.2006 6.38486 0.0915019
rclavicle 5.46658e-015 1.8487e-014
rhumerus -26.9168 6.64983 -70.8347
rradius 79.8265
rwrist 10.326
rhand -28.864 5.86572
rfingers 7.12502
rthumb -2.22035 -24.1025
lclavicle 5.46658e-015 1.8487e-014
lhumerus -9.73143 -27.1578 71.6806
lradius 72.8509
lwrist 13.8689
lhand -17.7085 67.4448
lfingers 7.12502
lthumb -171.448 82.7484
rfemur -11.2741 11.262 21.5784
rtibia 12.9671
rfoot -8.4777 -17.6035
rtoes -11.9693
lfemur -16.4513 -18.6457 -9.59752
ltibia 21.1354
lfoot -14.8157 13.4289
ltoes -24.8991
276
root -1.86621 17.7983 6.2272 4.79201 64.2405 -6.91274
lowerback 1.33908 2.19784 4.36048
upperback -1.52033 3.06382 0.68382
thorax -2.12429 1.47053 -1.82833
lowerneck -20.6416 8.4602 9.29481
upperneck 42.161 12.4217 -2.70844
head 21.3111 6.26085 0.125956
rclavicle 5.11125e-014 3.1408e-014
rhumerus -26.8817 6.46078 -70.8695
rradius 79.9303
rwrist 8.99985
rhand -28.9852 5.87824
rfingers 7.12502
rthumb -2.33742 -24.0887
lclavicle 5.11125e-014 3.1408e-014
lhumerus -9.74016 -27.2137 71.5552
lradius 72.8803
lwrist 14.7962
lhand -16.964 67.0131
lfingers 7.12502
lthumb -170.73 83.2107
rfemur -11.2985 11.0355 21.6105
rtibia 12.973
rfoot -8.39163 -17.4585
rtoes -13.3485
lfemur -16.4767 -18.7458 -9.5773
ltibia 21.1472
lfoot -14.8928 14.7836
ltoes -31.0166
277
root -1.86576 17.8002 6.22716 4.77292 64.2392 -6.93828
lowerback 1.34121 2.18008 4.28878
upperback -1.54279 3.03963 0.695247
thorax -2.15428 1.45883 -1.77686
lowerneck -20.7289 8.21831 8.70713
upperneck 41.9702 11.8934 -2.05956
head 20.9972 6.05558 0.40567
rclavicle 2.82026e-014 1.35174e-014
rhumerus -26.8707 6.38333 -70.924
rradius 79.9575
rwrist 7.366
rhand -29.4239 6.1914
rfingers 7.12502
rthumb -2.7611 -23.7705
lclavicle 2.82026e-014 1.35174e-014
lhumerus -9.74944 -27.3104 71.4422
lradius 73.0695
lwrist 15.9554
lhand -15.9512 67.5018
lfingers 7.12502
lthumb -169.753 82.7678
rfemur -11.3023 11.0104 21.6087
rtibia 12.9748
rfoot -8.50493 -17.3834
rtoes -12.1544
lfemur -16.4894 -18.766 -9.5633
ltibia 21.1737
lfoot -14.5395 14.849
ltoes -32.6397
278
root -1.86546 17.8025 6.22709 4.76013 64.2381 -6.95934
lowerback 1.35439 2.16253 4.20203
upperback -1.57666 3.01644 0.70886
thorax -2.20298 1.4474 -1.71556
lowerneck -20.9254 7.99781 8.54584
upperneck 41.9954 11.5026 -1.91413
head 21.0033 5.89769 0.416282
rclavicle -3.0911e-014 -2.92213e-014
rhumerus -26.8647 6.34763 -70.9631
rradius 79.8976
rwrist 6.0815
rhand -30.0884 6.6759
rfingers 7.12502
rthumb -3.40281 -23.2767
lclavicle -3.0911e-014 -2.92213e-014
lhumerus -9.8422 -27.6338 71.4279
lradius 73.1365
lwrist 18.485
lhand -17.7433 67.3528
lfingers 7.12502
lthumb -171.482 82.8391
rfemur -11.3024 11.039 21.6007
rtibia 12.9679
rfoot -8.58307 -17.3534
rtoes -10.8519
lfemur -16.5151 -18.7126 -9.56097
ltibia 21.2229
lfoot -14.5017 14.6246
ltoes -31.4853
279
root -1.86546 17.8005 6.22657 4.72463 64.247 -7.0055
lowerback 1.36384 2.14241 4.1143
upperback -1.6081 2.98947 0.723229
thorax -2.2473 1.4343 -1.65259
lowerneck -21.1835 7.72495 8.30966
upperneck 42.0655 11.0293 -1.70274
head 21.0389 5.70486 0.456543
rclavicle -1.9456e-014 4.57205e-015
rhumerus -26.8736 6.2844 -71.0187
rradius 79.8064
rwrist 5.59803
rhand -30.9659 7.14201
rfingers 7.12502
rthumb -4.2502 -22.7953
lclavicle -1.9456e-014 4.57205e-015
lhumerus -9.84953 -27.3287 71.309
lradius 73.1126
lwrist 18.7287
lhand -16.5232 67.0417
lfingers 7.12502
lthumb -170.305 83.2014
rfemur -11.3134 10.8705 21.6474
rtibia 12.9654
rfoot -8.45116 -17.2294
rtoes -12.1063
lfemur -16.5528 -18.7396 -9.53707
ltibia 21.2775
lfoot -14.7888 14.1647
ltoes -27.4669
280
root -1.8657 17.796 6.22493 4.64124 64.2568 -7.09182
lowerback 1.38376 2.11617 4.05831
upperback -1.64224 2.9555 0.728973
thorax -2.29863 1.41695 -1.6164
lowerneck -21.366 7.40067 7.95914
upperneck 42.0536 10.4687 -1.39198
head 20.9691 5.47778 0.536288
rclavicle -3.70733e-014 -2.26615e-014
rhumerus -26.9161 6.24699 -71.1184
rradius 79.7014
rwrist 5.84362
rhand -31.9298 7.4927
rfingers 7.12502
rthumb -5.18098 -22.424
lclavicle -3.70733e-014 -2.26615e-014
lhumerus -9.92506 -27.2133 71.2268
lradius 73.211
lwrist 19.682
lhand -16.5719 66.5887
lfingers 7.12502
lthumb -170.352 83.6522
rfemur -11.3233 10.5202 21.7403
rtibia 12.9608
rfoot -8.23692 -17.0085
rtoes -14.8464
lfemur -16.5892 -18.7534 -9.49808
ltibia 21.3421
lfoot -15.0303 13.6992
ltoes -25.481
281
root -1.8655 17.7949 6.22274 4.52203 64.275 -7.21355
lowerback 1.41361 2.08158 4.03087
upperback -1.67193 2.91124 0.728262
thorax -2.3498 1.39397 -1.60268
lowerneck -21.5748 7.06932 7.53464
upperneck 41.9958 9.8745 -0.986092
head 20.8634 5.23793 0.667599
rclavicle 5.46658e-015 1.70955e-014
rhumerus -26.9353 6.28459 -71.2138
rradius 79.6166
rwrist 6.21259
rhand -32.7425 7.79665
rfingers 7.12502
rthumb -5.96557 -22.0994
lclavicle 5.46658e-015 1.70955e-014
lhumerus -10.023 -27.2085 71.1869
lradius 73.3398
lwrist 20.8042
lhand -16.7116 66.2343
lfingers 7.12502
lthumb -170.486 84.0004
rfemur -11.3208 10.3272 21.8098
rtibia 12.9552
rfoot -8.22687 -16.8672
rtoes -15.2046
lfemur -16.63 -18.7084 -9.44704
ltibia 21.4211
lfoot -15.0584 14.5586
ltoes -28.9723
282
root -1.86436 17.7966 6.2201 4.42118 64.3059 -7.304
lowerback 1.43848 2.02113 3.96133
upperback -1.68359 2.83067 0.739043
thorax -2.38404 1.35426 -1.55201
lowerneck -21.8959 6.75722 7.16367
upperneck 42.0298 9.33153 -0.65549
head 20.8797 5.01193 0.77583
rclavicle 1.27222e-014 -8.34896e-015
rhumerus -26.8972 6.43228 -71.285
rradius 79.5839
rwrist 6.37357
rhand -33.737 8.01702
rfingers 7.12502
rthumb -6.92568 -21.8497
lclavicle 1.27222e-014 -8.34896e-015
lhumerus -10.1893 -27.1808 71.1565
lradius 73.5477
lwrist 21.469
lhand -17.3895 66.1307
lfingers 7.12502
lthumb -171.14 84.0753
rfemur -11.317 10.1992 21.847
rtibia 12.9815
rfoot -8.31033 -16.7303
rtoes -14.3135
lfemur -16.6405 -18.7374 -9.41384
ltibia 21.4668
lfoot -15.1576 14.5331
ltoes -28.5248
